<?xml version="1.0" encoding="UTF-8"?>
<!DOCTYPE svg PUBLIC "-//W3C//DTD SVG 1.1//EN" "http://www.w3.org/Graphics/SVG/1.1/DTD/svg11.dtd">
<svg xmlns="http://www.w3.org/2000/svg" version="1.1" width="162px" height="42px" style="shape-rendering:geometricPrecision; text-rendering:geometricPrecision; image-rendering:optimizeQuality; fill-rule:evenodd; clip-rule:evenodd" xmlns:xlink="http://www.w3.org/1999/xlink">
<g><path style="opacity:1" fill="#fff4f1" d="M -0.5,-0.5 C 53.5,-0.5 107.5,-0.5 161.5,-0.5C 161.5,13.5 161.5,27.5 161.5,41.5C 107.5,41.5 53.5,41.5 -0.5,41.5C -0.5,27.5 -0.5,13.5 -0.5,-0.5 Z"/></g>
<g><path style="opacity:1" fill="#f94439" d="M 105.5,1.5 C 121.351,-1.4522 126.351,4.5478 120.5,19.5C 127.788,35.2222 122.788,41.8888 105.5,39.5C 105.5,26.8333 105.5,14.1667 105.5,1.5 Z"/></g>
<g><path style="opacity:1" fill="#fb6438" d="M 71.5,1.5 C 76.5,1.5 81.5,1.5 86.5,1.5C 86.6641,4.1873 86.4974,6.85397 86,9.5C 84.9887,10.3366 83.8221,10.67 82.5,10.5C 82.5,17.1667 82.5,23.8333 82.5,30.5C 83.8333,30.5 85.1667,30.5 86.5,30.5C 86.6641,33.1873 86.4974,35.854 86,38.5C 81.3333,39.8333 76.6667,39.8333 72,38.5C 71.5026,35.854 71.3359,33.1873 71.5,30.5C 72.8333,30.5 74.1667,30.5 75.5,30.5C 75.5,23.8333 75.5,17.1667 75.5,10.5C 74.1779,10.67 73.0113,10.3366 72,9.5C 71.5026,6.85397 71.3359,4.1873 71.5,1.5 Z"/></g>
<g><path style="opacity:1" fill="#f83a3e" d="M 141.5,10.5 C 138.833,10.5 136.167,10.5 133.5,10.5C 133.205,12.7354 133.539,14.7354 134.5,16.5C 136.167,16.5 137.833,16.5 139.5,16.5C 139.5,19.1667 139.5,21.8333 139.5,24.5C 137.833,24.5 136.167,24.5 134.5,24.5C 134.5,26.5 134.5,28.5 134.5,30.5C 136.833,30.5 139.167,30.5 141.5,30.5C 141.5,33.5 141.5,36.5 141.5,39.5C 136.5,39.5 131.5,39.5 126.5,39.5C 126.5,26.8333 126.5,14.1667 126.5,1.5C 131.5,1.5 136.5,1.5 141.5,1.5C 141.5,4.5 141.5,7.5 141.5,10.5 Z"/></g>
<g><path style="opacity:1" fill="#f7273e" d="M 145.5,1.5 C 150.5,1.5 155.5,1.5 160.5,1.5C 160.5,4.5 160.5,7.5 160.5,10.5C 157.833,10.5 155.167,10.5 152.5,10.5C 152.5,12.5 152.5,14.5 152.5,16.5C 154.167,16.5 155.833,16.5 157.5,16.5C 157.5,19.1667 157.5,21.8333 157.5,24.5C 155.833,24.5 154.167,24.5 152.5,24.5C 152.5,26.5 152.5,28.5 152.5,30.5C 155.167,30.5 157.833,30.5 160.5,30.5C 160.5,33.5 160.5,36.5 160.5,39.5C 155.5,39.5 150.5,39.5 145.5,39.5C 145.5,26.8333 145.5,14.1667 145.5,1.5 Z"/></g>
<g><path style="opacity:1" fill="#fd8531" d="M 33.5,1.5 C 38.1667,1.5 42.8333,1.5 47.5,1.5C 47.5,4.5 47.5,7.5 47.5,10.5C 45.1667,10.5 42.8333,10.5 40.5,10.5C 40.5,12.8333 40.5,15.1667 40.5,17.5C 42.1667,17.5 43.8333,17.5 45.5,17.5C 45.5,20.1667 45.5,22.8333 45.5,25.5C 43.8333,25.5 42.1667,25.5 40.5,25.5C 40.6658,30.1785 40.4992,34.8452 40,39.5C 37.9592,40.4231 35.7925,40.7564 33.5,40.5C 33.5,27.5 33.5,14.5 33.5,1.5 Z"/></g>
<g><path style="opacity:1" fill="#fa5638" d="M 87.5,1.5 C 92.1667,1.5 96.8333,1.5 101.5,1.5C 101.5,4.5 101.5,7.5 101.5,10.5C 100.5,10.5 99.5,10.5 98.5,10.5C 98.5,17.1667 98.5,23.8333 98.5,30.5C 99.8221,30.33 100.989,30.6634 102,31.5C 102.769,34.0991 102.602,36.5991 101.5,39C 96.8452,39.4992 92.1785,39.6658 87.5,39.5C 87.5,36.5 87.5,33.5 87.5,30.5C 88.8333,30.5 90.1667,30.5 91.5,30.5C 91.5,23.8333 91.5,17.1667 91.5,10.5C 90.1779,10.67 89.0113,10.3366 88,9.5C 87.5026,6.85397 87.3359,4.1873 87.5,1.5 Z"/></g>
<g><path style="opacity:1" fill="#ffa03c" d="M 9.5,2.5 C 11.8594,2.54379 14.3594,2.21045 17,1.5C 16.7191,4.05706 16.8858,6.72373 17.5,9.5C 21.5753,9.39864 24.0753,11.3986 25,15.5C 26.2889,21.0884 26.7889,26.7551 26.5,32.5C 23.7938,32.4249 21.1272,32.0916 18.5,31.5C 18.6495,32.552 18.4828,33.552 18,34.5C 15.9146,36.0821 14.4146,38.0821 13.5,40.5C 12.3099,36.8076 10.1432,33.8076 7,31.5C 4.90115,32.2865 2.73448,32.6199 0.5,32.5C -0.950446,23.98 1.04955,16.48 6.5,10C 7.44802,9.51722 8.44802,9.35055 9.5,9.5C 10.4171,6.99518 10.4171,4.66185 9.5,2.5 Z"/></g>
<g><path style="opacity:1" fill="#ffe8e6" d="M 112.5,10.5 C 114.948,10.0847 116.281,11.0847 116.5,13.5C 116.272,15.3969 115.272,16.7303 113.5,17.5C 112.526,15.2573 112.192,12.924 112.5,10.5 Z"/></g>
<g><path style="opacity:1" fill="#fc9ea2" d="M 141.5,10.5 C 139.393,11.4682 137.059,11.8016 134.5,11.5C 134.5,13.1667 134.5,14.8333 134.5,16.5C 133.539,14.7354 133.205,12.7354 133.5,10.5C 136.167,10.5 138.833,10.5 141.5,10.5 Z"/></g>
<g><path style="opacity:1" fill="#fff9f2" d="M 7.5,12.5 C 8.82207,12.33 9.98873,12.6634 11,13.5C 12.1247,18.3993 11.2914,22.8993 8.5,27C 6.65472,28.128 4.65472,28.628 2.5,28.5C 2.16893,22.4381 3.8356,17.1047 7.5,12.5 Z"/></g>
<g><path style="opacity:1" fill="#fffaf5" d="M 16.5,12.5 C 20.5753,12.3986 23.0753,14.3986 24,18.5C 24.4983,21.8168 24.665,25.1501 24.5,28.5C 21.6755,28.9193 19.5088,27.9193 18,25.5C 16.6326,21.3004 16.1326,16.9671 16.5,12.5 Z"/></g>
<g><path style="opacity:1" fill="#fc7739" d="M 50.5,1.5 C 68.9016,-0.29191 73.9016,7.04142 65.5,23.5C 67.3604,27.0825 69.0271,30.7492 70.5,34.5C 69.3946,38.1253 67.0613,39.9586 63.5,40C 62.1233,35.3676 60.4567,30.8676 58.5,26.5C 57.5078,30.7828 57.1744,35.1161 57.5,39.5C 55.1667,39.5 52.8333,39.5 50.5,39.5C 50.5,26.8333 50.5,14.1667 50.5,1.5 Z"/></g>
<g><path style="opacity:1" fill="#fdb998" d="M 60.5,11.5 C 59.2749,12.1522 58.6083,13.3189 58.5,15C 58.5143,16.3847 58.8476,17.5514 59.5,18.5C 59.44,19.0431 59.1067,19.3764 58.5,19.5C 57.5159,16.5719 57.1826,13.5719 57.5,10.5C 58.791,10.2627 59.791,10.596 60.5,11.5 Z"/></g>
<g><path style="opacity:1" fill="#fffbf9" d="M 60.5,11.5 C 61.1471,12.2739 61.4805,13.2739 61.5,14.5C 61.6598,16.3545 60.9931,17.6879 59.5,18.5C 58.8476,17.5514 58.5143,16.3847 58.5,15C 58.6083,13.3189 59.2749,12.1522 60.5,11.5 Z"/></g>
<g><path style="opacity:1" fill="#ffdbb6" d="M 12.5,22.5 C 14.337,22.6395 14.6704,23.3061 13.5,24.5C 12.7025,24.0431 12.3691,23.3764 12.5,22.5 Z"/></g>
<g><path style="opacity:1" fill="#ffe8e7" d="M 112.5,23.5 C 116.264,24.385 117.264,26.5516 115.5,30C 114.552,30.4828 113.552,30.6495 112.5,30.5C 112.5,28.1667 112.5,25.8333 112.5,23.5 Z"/></g>
<g><path style="opacity:1" fill="#ffdcb7" d="M 10.5,27.5 C 12.604,27.2011 14.604,27.5344 16.5,28.5C 15.5,28.8333 14.5,29.1667 13.5,29.5C 11.9704,29.3601 10.9704,28.6935 10.5,27.5 Z"/></g>
</svg>
